<svg width="40" height="38" viewBox="0 0 40 38" fill="none" xmlns="http://www.w3.org/2000/svg">
<rect x="38.8457" y="37" width="36" height="36" rx="18" transform="rotate(180 38.8457 37)" fill="#FCFCFC" fill-opacity="0.3"/>
<path fill-rule="evenodd" clip-rule="evenodd" d="M21.7104 24.1353C21.9701 24.395 22.3912 24.395 22.6509 24.1353C22.9106 23.8756 22.9106 23.4546 22.6509 23.1949L18.4496 18.9936L22.6509 14.7923C22.9106 14.5326 22.9106 14.1115 22.6509 13.8518C22.3912 13.5921 21.9702 13.5921 21.7105 13.8518L17.0418 18.5205C17.0408 18.5215 17.0399 18.5224 17.0389 18.5233C16.7792 18.783 16.7792 19.2041 17.0389 19.4638L21.7104 24.1353Z" fill="#FCFCFC"/>
<rect x="38.8457" y="37" width="36" height="36" rx="18" transform="rotate(180 38.8457 37)" stroke="#FCFCFC" stroke-width="2"/>
</svg>
