<svg width="15" height="14" viewBox="0 0 15 14" fill="none" xmlns="http://www.w3.org/2000/svg">
<path fill-rule="evenodd" clip-rule="evenodd" d="M0.5 0.774577C0.5 0.406387 0.798477 0.10791 1.16667 0.10791H3.4844C3.80215 0.10791 4.07574 0.332167 4.1381 0.643739L4.61072 3.00507H13.9142C14.1129 3.00507 14.3012 3.09369 14.4279 3.24678C14.5545 3.39986 14.6063 3.60146 14.5691 3.79663L13.642 8.65807L13.641 8.66306L13.641 8.66306C13.5575 9.08329 13.3289 9.46078 12.9952 9.72944C12.6633 9.99662 12.2484 10.1392 11.8225 10.1327H6.20183C5.77595 10.1392 5.36111 9.99662 5.02921 9.72944C4.69562 9.4609 4.46706 9.08363 4.3835 8.66362L4.38338 8.66306L3.416 3.82973C3.41176 3.81229 3.40821 3.79458 3.40537 3.77663L2.93794 1.44124H1.16667C0.798477 1.44124 0.5 1.14277 0.5 0.774577ZM5.80307 11.1177C5.1151 11.1177 4.55739 11.6754 4.55739 12.3633C4.55739 13.0513 5.1151 13.609 5.80307 13.609C6.49105 13.609 7.04876 13.0513 7.04876 12.3633C7.04876 11.6754 6.49105 11.1177 5.80307 11.1177ZM12.1764 11.1177C11.4884 11.1177 10.9307 11.6754 10.9307 12.3633C10.9307 13.0513 11.4884 13.609 12.1764 13.609C12.8644 13.609 13.4221 13.0513 13.4221 12.3633C13.4221 11.6754 12.8644 11.1177 12.1764 11.1177Z" fill="#2D3440"/>
</svg>
