<svg width="64" height="38" viewBox="0 0 64 38" fill="none" xmlns="http://www.w3.org/2000/svg">
<rect x="1" y="1" width="62" height="36" rx="18" fill="#FCFCFC" fill-opacity="0.3"/>
<path fill-rule="evenodd" clip-rule="evenodd" d="M18.1353 13.8647C17.8756 13.605 17.4545 13.605 17.1948 13.8647C16.9351 14.1244 16.9351 14.5454 17.1948 14.8051L21.3961 19.0064L17.1948 23.2077C16.9351 23.4674 16.9351 23.8885 17.1948 24.1482C17.4545 24.4079 17.8755 24.4079 18.1352 24.1482L22.8039 19.4795C22.8049 19.4785 22.8058 19.4776 22.8068 19.4767C23.0665 19.217 23.0665 18.7959 22.8068 18.5362L18.1353 13.8647Z" fill="#FCFCFC"/>
<path fill-rule="evenodd" clip-rule="evenodd" d="M46.8033 14.8051C47.063 14.5454 47.063 14.1244 46.8033 13.8647C46.5436 13.605 46.1226 13.605 45.8629 13.8647L41.1948 18.5328C40.9359 18.7916 40.9351 19.2108 41.1922 19.4707C41.1934 19.4718 41.1945 19.473 41.1957 19.4742L45.8638 24.1423C46.1235 24.402 46.5445 24.402 46.8042 24.1423C47.0639 23.8826 47.0639 23.4615 46.8042 23.2018L42.6054 19.003L46.8033 14.8051Z" fill="#FCFCFC"/>
<rect x="1" y="1" width="62" height="36" rx="18" stroke="#FCFCFC" stroke-width="2"/>
</svg>
